<?xml version="1.0" standalone="no"?>
<!DOCTYPE svg PUBLIC "-//W3C//DTD SVG 20010904//EN"
 "http://www.w3.org/TR/2001/REC-SVG-20010904/DTD/svg10.dtd">
<svg version="1.0" xmlns="http://www.w3.org/2000/svg"
 width="1800.000000pt" height="1014.000000pt" viewBox="0 0 1800.000000 1014.000000"
 preserveAspectRatio="xMidYMid meet">
<g transform="translate(0.000000,1014.000000) scale(0.100000,-0.100000)"
fill="#000000" stroke="none">
<path d="M8397 8987 c-53 -19 -107 -43 -120 -54 -12 -12 -51 -35 -87 -53 -36
-18 -82 -48 -103 -66 -20 -19 -44 -34 -51 -34 -8 0 -50 -27 -94 -60 l-80 -60
-69 -82 c-69 -82 -116 -146 -150 -202 -10 -15 -42 -67 -71 -114 l-53 -86 3
-24 c2 -14 10 -29 18 -33 48 -25 151 -69 185 -79 22 -6 81 -32 130 -56 50 -24
97 -44 106 -44 16 0 114 -49 154 -76 11 -8 34 -14 51 -14 l31 0 28 40 c33 48
164 174 221 213 l40 27 160 3 159 2 40 -14 c98 -34 258 -160 295 -231 10 -19
27 -44 39 -54 12 -11 21 -25 21 -33 0 -7 9 -22 21 -34 l21 -21 23 6 c13 3 54
26 91 51 38 25 74 45 81 45 7 0 27 13 45 29 18 15 62 43 98 61 36 18 79 43 95
55 17 13 48 30 70 39 89 37 99 63 55 141 -16 30 -30 59 -30 66 0 6 -20 38 -45
71 -25 33 -45 65 -45 70 0 23 -137 172 -202 221 -21 15 -52 41 -70 57 -18 17
-37 30 -43 30 -6 0 -28 18 -50 40 -21 21 -51 42 -66 45 -16 4 -37 16 -47 28
-23 28 -71 62 -102 72 -13 4 -57 25 -97 46 -41 22 -82 39 -91 39 -9 0 -62 11
-117 26 l-100 25 -100 5 -100 4 -98 -33z"/>
<path d="M8765 7923 l-17 -16 6 -30 c3 -16 6 -60 6 -97 l0 -68 43 -20 c23 -11
60 -28 82 -37 22 -9 54 -29 70 -44 17 -16 55 -46 85 -66 30 -21 59 -44 63 -52
11 -18 42 -17 57 2 l13 15 -33 68 c-58 118 -196 282 -289 344 -33 22 -65 23
-86 1z"/>
<path d="M8494 7883 c-16 -10 -46 -29 -65 -42 l-34 -23 -56 -93 c-31 -50 -60
-107 -64 -126 -4 -19 -18 -66 -31 -106 l-25 -72 11 -21 11 -20 23 0 24 0 35
39 c20 22 43 52 51 68 20 38 99 113 167 157 l57 36 6 23 c19 72 -30 197 -77
197 -1 0 -16 -8 -33 -17z"/>
<path d="M7453 7882 l-22 -3 -6 -22 c-3 -12 -10 -40 -16 -62 -6 -22 -22 -71
-36 -110 -14 -38 -30 -110 -36 -158 l-10 -88 14 -15 15 -14 64 -6 c36 -3 82
-12 103 -20 20 -8 53 -14 72 -14 46 0 176 -33 254 -64 36 -14 82 -26 103 -26
l38 0 14 23 c7 12 16 47 20 78 3 30 18 87 32 125 15 38 27 85 28 103 l1 35
-25 12 c-108 52 -183 84 -199 84 -10 0 -59 20 -107 45 -49 25 -94 45 -101 45
-6 0 -33 9 -59 20 -56 25 -111 37 -141 32z"/>
<path d="M9826 7796 c-33 -24 -76 -49 -95 -56 -20 -7 -45 -20 -56 -30 -28 -25
-120 -70 -143 -70 -10 0 -29 -11 -41 -24 -13 -13 -49 -34 -82 -46 l-59 -22 0
-26 c0 -14 9 -35 20 -47 21 -23 39 -65 94 -220 l31 -90 29 -3 28 -4 23 22 c27
25 161 87 219 101 21 5 51 19 66 29 41 29 118 60 149 60 14 0 37 7 50 16 l24
17 -6 51 c-6 62 -30 141 -68 221 -15 33 -31 74 -34 90 -4 17 -14 40 -21 53
l-14 22 -28 -1 -27 -1 -59 -42z"/>
<path d="M8805 7390 c-4 -6 -2 -52 4 -103 6 -50 13 -126 17 -167 8 -95 14
-105 66 -118 24 -6 66 -26 94 -45 27 -18 69 -41 92 -50 23 -9 61 -29 85 -44
50 -33 108 -62 123 -63 6 0 17 -6 23 -14 6 -8 23 -16 37 -19 l25 -4 15 14 c18
18 18 44 -1 69 l-14 19 -1 55 -1 55 -42 97 -42 97 -32 35 -32 34 -44 6 c-25 4
-53 13 -63 21 -11 8 -26 15 -34 15 -8 0 -41 18 -73 39 -32 22 -74 45 -95 52
-20 6 -41 15 -46 20 -13 12 -53 11 -61 -1z"/>
<path d="M8565 7371 c-11 -5 -69 -55 -130 -111 -60 -56 -130 -120 -155 -142
-25 -21 -68 -62 -97 -91 l-52 -51 -5 -61 c-3 -33 -7 -118 -8 -190 l-3 -130 25
-3 26 -3 79 71 c44 40 101 91 126 113 26 23 71 63 100 89 30 25 80 70 113 100
l59 53 -6 170 -6 170 -18 12 c-19 15 -21 15 -48 4z"/>
<path d="M7271 7143 l-20 -18 -10 -45 c-40 -175 -51 -243 -51 -301 l0 -66 20
-18 20 -19 88 -7 c48 -4 114 -15 147 -25 l60 -17 185 -1 185 -1 13 27 c14 29
26 157 27 278 l0 75 -30 14 c-16 8 -55 16 -85 18 -30 2 -77 10 -105 18 -76 22
-179 45 -202 45 -12 0 -47 14 -78 30 l-57 30 -43 0 -43 0 -21 -17z"/>
<path d="M10096 7103 l-40 -4 -29 -25 -29 -25 -37 2 -36 2 -105 -32 c-111 -33
-190 -70 -228 -105 l-24 -21 8 -30 c3 -16 8 -93 11 -170 l4 -139 11 -13 c6 -7
25 -13 43 -13 l33 0 32 26 31 27 87 14 c48 8 128 21 177 29 50 8 120 17 158
21 l67 6 30 34 c34 38 36 54 15 138 -8 33 -18 102 -21 154 l-7 94 -19 19 -18
18 -37 -2 c-21 -1 -56 -3 -77 -5z"/>
<path d="M8847 6742 l-17 -19 14 -134 14 -133 38 -34 c22 -18 51 -39 65 -47
l27 -14 133 -11 c134 -11 227 -31 264 -56 24 -17 65 -18 66 -1 4 40 -4 164
-11 183 l-9 23 -58 18 c-32 10 -92 37 -134 60 -42 24 -82 43 -89 43 -6 0 -48
23 -93 50 -45 28 -86 50 -92 50 -5 0 -21 9 -35 20 -31 25 -62 25 -83 2z"/>
<path d="M8570 6658 c-124 -115 -220 -195 -267 -223 -35 -21 -45 -37 -37 -59
8 -21 12 -22 224 -16 l195 5 3 60 c3 55 -12 227 -24 268 -9 29 -37 19 -94 -35z"/>
<path d="M10175 6423 c-22 -8 -80 -19 -130 -23 -49 -4 -110 -15 -133 -23 -24
-9 -87 -24 -140 -32 -53 -9 -107 -22 -119 -31 l-23 -14 0 -59 0 -59 64 -50
c34 -28 80 -72 102 -98 21 -27 41 -53 45 -58 l8 -9 223 2 223 2 23 15 22 14 0
196 0 195 -25 24 -24 25 -38 0 c-21 -1 -56 -8 -78 -17z"/>
<path d="M7210 6415 l-12 -15 11 -107 c6 -60 11 -168 11 -240 l0 -133 20 -20
20 -20 42 5 c24 2 86 7 140 10 53 3 163 19 244 35 81 17 166 30 189 30 l43 0
12 15 13 15 -7 98 c-11 169 -22 291 -27 296 -3 3 -132 10 -287 16 -156 6 -306
15 -334 20 -65 13 -63 13 -78 -5z"/>
<path d="M8229 6098 l-19 -7 0 -1049 c0 -577 -2 -1062 -5 -1078 -3 -16 -1 -35
4 -43 l9 -13 222 0 222 0 9 13 c5 8 7 23 4 34 -2 11 -8 194 -11 406 l-7 386
12 8 c7 4 65 7 129 6 l117 -1 23 -26 c12 -14 22 -31 22 -38 0 -7 13 -25 29
-40 16 -16 32 -40 36 -53 3 -14 24 -52 46 -85 22 -32 48 -76 57 -96 9 -20 27
-48 39 -62 12 -14 34 -47 48 -75 15 -27 40 -67 56 -87 16 -20 34 -49 39 -63 6
-15 24 -47 41 -71 17 -25 39 -64 50 -88 10 -24 24 -48 31 -53 l13 -10 255 -4
255 -4 3 18 4 18 -40 43 c-22 24 -47 57 -55 73 -9 16 -23 36 -33 44 -16 13
-70 89 -140 199 -17 27 -45 65 -62 85 -18 20 -43 57 -56 83 -14 27 -32 54 -41
62 -9 8 -27 34 -40 59 -13 25 -35 57 -50 71 -15 14 -35 41 -45 61 -10 19 -35
55 -54 78 -20 24 -36 51 -36 61 l0 18 57 31 c31 17 63 31 71 31 7 0 33 20 58
45 24 25 48 45 53 45 5 0 20 17 32 38 12 20 34 51 49 68 32 37 43 66 65 165
l17 76 -5 104 c-3 57 -12 139 -20 182 l-16 78 -42 57 c-61 81 -141 162 -160
162 -9 0 -33 11 -53 25 -80 54 -163 73 -461 105 -115 12 -697 19 -726 8z m762
-394 c31 -8 70 -14 85 -14 63 0 132 -65 164 -152 l22 -62 -5 -58 c-3 -31 -17
-88 -31 -125 l-26 -68 -73 -37 c-39 -20 -92 -43 -117 -52 l-45 -15 -141 -2
c-78 -1 -147 1 -153 5 l-11 7 0 294 0 294 17 3 c40 8 263 -5 314 -18z"/>
<path d="M9972 5762 c-17 -12 -18 -32 -2 -127 7 -44 13 -130 12 -192 l0 -112
13 -11 c12 -10 92 -23 217 -37 l57 -6 10 24 c5 13 19 49 31 79 l22 55 10 100
c6 55 11 122 11 149 l0 49 -22 19 c-28 22 -57 23 -104 3 l-35 -14 -73 9 c-41
6 -87 12 -104 15 -16 3 -36 2 -43 -3z"/>
<path d="M7840 5735 c-19 -7 -47 -14 -61 -14 -15 -1 -42 -7 -60 -15 -19 -8
-99 -19 -179 -26 -80 -6 -163 -15 -185 -19 l-40 -7 -3 -36 c-2 -21 2 -47 9
-59 6 -13 15 -48 19 -78 4 -31 18 -81 30 -111 28 -70 40 -111 54 -180 l11 -55
21 -3 22 -3 77 40 c43 23 85 41 95 41 9 0 48 12 86 26 38 14 96 35 129 47 79
28 75 12 75 255 l0 212 -32 -1 c-18 0 -49 -7 -68 -14z"/>
<path d="M7878 5026 c-21 -8 -50 -22 -65 -32 -45 -30 -75 -45 -128 -64 -27
-10 -67 -26 -87 -36 l-38 -19 0 -16 c0 -9 11 -36 24 -60 13 -24 32 -66 42 -94
10 -27 26 -61 36 -74 10 -13 30 -62 44 -108 l25 -83 21 -11 21 -11 63 33 c35
18 73 42 84 54 l19 21 1 229 c0 127 1 242 0 258 l0 27 -12 0 c-7 -1 -30 -7
-50 -14z"/>
<path d="M9880 5020 c-11 -11 -20 -27 -20 -36 0 -9 -20 -39 -45 -66 -25 -28
-45 -54 -45 -58 0 -5 -15 -18 -34 -29 -19 -12 -37 -29 -40 -37 l-6 -16 40 -44
c22 -24 40 -48 40 -53 0 -5 24 -44 54 -86 30 -41 57 -84 61 -93 l5 -19 50 -22
c27 -12 65 -33 85 -47 20 -13 49 -24 65 -24 l29 0 21 22 c11 12 20 34 20 49 0
15 18 104 40 199 l41 171 -3 51 -3 51 -55 18 c-30 10 -62 19 -70 19 -9 0 -31
11 -51 24 -20 14 -53 27 -75 31 -21 3 -49 8 -61 11 l-23 4 -20 -20z"/>
<path d="M7737 3564 c-3 -5 -8 -27 -12 -49 -3 -22 -16 -65 -29 -95 -13 -30
-36 -91 -52 -135 l-28 -80 -1 -60 0 -60 195 -7 c107 -4 251 -11 320 -16 l125
-9 16 8 17 8 12 103 c6 57 18 131 26 166 19 84 18 96 -8 127 l-23 25 -75 20
-75 20 -113 0 -113 0 -28 14 c-15 8 -55 18 -88 21 l-60 7 -6 -8z"/>
<path d="M9273 3339 l-13 -13 0 -56 c0 -30 -4 -71 -10 -89 -5 -19 -13 -87 -16
-150 l-7 -116 21 -18 20 -18 93 -5 c107 -7 261 -33 376 -66 43 -12 102 -24
131 -26 l52 -4 14 34 14 33 12 193 12 192 -12 15 -12 15 -37 0 c-37 0 -211 22
-312 40 -30 6 -104 17 -165 25 -60 8 -118 17 -129 20 l-20 6 -12 -12z"/>
<path d="M8470 3237 c-34 -26 -49 -154 -28 -233 l13 -46 48 -44 c27 -24 63
-48 81 -53 l31 -8 17 8 c24 13 27 30 30 151 l3 107 -68 65 -67 66 -23 0 c-12
0 -29 -6 -37 -13z"/>
<path d="M8997 3145 c-20 -13 -54 -29 -75 -34 -21 -6 -48 -20 -60 -31 l-22
-21 -2 -62 c-1 -34 -2 -80 -2 -101 l1 -39 18 -14 c36 -26 174 13 214 61 l14
16 -6 34 c-3 19 -1 66 4 106 l9 72 -11 19 c-13 26 -39 24 -82 -6z"/>
<path d="M7588 2884 l-37 -16 -15 -46 c-8 -26 -16 -86 -18 -134 l-2 -86 12
-15 12 -14 152 4 c84 3 218 0 298 -5 l145 -9 45 11 44 11 23 34 23 34 0 77 0
77 -19 17 -18 17 -119 9 c-66 6 -148 14 -184 20 -36 5 -99 12 -140 15 -41 3
-95 8 -120 10 l-45 5 -37 -16z"/>
<path d="M8398 2700 l-30 -31 4 -55 5 -55 20 -27 c19 -26 134 -92 160 -92 7 0
22 9 33 20 l20 20 0 43 0 42 -20 40 c-12 22 -42 59 -68 83 l-46 42 -24 0 -24
0 -30 -30z"/>
<path d="M9219 2723 c-9 -2 -23 -20 -32 -39 l-17 -35 0 -90 c0 -133 10 -145
143 -159 45 -5 116 -20 157 -35 141 -50 205 -65 290 -72 l86 -6 17 17 c9 10
19 29 22 44 3 15 10 41 15 57 5 17 14 55 20 84 l10 54 -14 22 -14 22 -84 6
c-46 4 -126 18 -178 32 -52 13 -145 34 -207 45 -62 11 -129 29 -150 40 -21 11
-40 19 -43 19 -3 -1 -12 -3 -21 -6z"/>
<path d="M8905 2620 c-22 -10 -53 -23 -68 -29 l-28 -11 -15 -35 c-34 -82 -15
-135 50 -135 l40 0 68 41 68 41 0 52 0 52 -16 22 -15 22 -22 -1 c-12 0 -40 -9
-62 -19z"/>
<path d="M8140 2379 l-15 -10 -292 3 -292 3 -13 -13 -13 -13 -3 -166 -4 -167
16 -12 17 -12 37 10 c20 5 60 15 87 20 28 6 87 24 133 39 101 35 202 59 246
59 44 0 137 28 160 48 l18 17 -6 79 -6 79 -15 23 c-17 26 -32 29 -55 13z"/>
<path d="M8377 2282 l-17 -19 0 -59 0 -59 29 -50 c16 -27 45 -65 64 -83 l35
-34 22 7 c11 4 26 19 31 33 l11 27 -7 73 -7 73 -55 55 c-59 58 -80 65 -106 36z"/>
<path d="M8860 2221 c-25 -16 -59 -44 -76 -62 l-31 -34 -6 -73 -6 -73 9 -25
10 -24 27 0 27 0 41 45 42 44 21 79 c25 90 27 123 10 140 -16 16 -16 16 -68
-17z"/>
<path d="M9126 2218 l-16 -22 0 -64 c0 -35 5 -72 10 -82 l10 -19 58 -18 c31
-9 73 -29 92 -43 19 -14 53 -34 75 -44 21 -10 53 -29 70 -42 78 -64 206 -152
230 -158 l26 -7 28 17 c35 21 57 57 66 109 4 22 18 61 31 87 13 26 24 60 24
76 l0 28 -27 26 -28 27 -95 16 c-52 10 -129 30 -170 45 -105 38 -139 48 -185
55 -22 4 -57 13 -78 21 -20 8 -53 14 -72 14 l-34 0 -15 -22z"/>
<path d="M8140 1964 c-30 -14 -91 -34 -135 -46 -44 -11 -84 -24 -90 -28 -22
-17 -165 -60 -220 -66 l-58 -7 -31 -28 -31 -27 18 -36 c9 -20 17 -43 17 -52 0
-20 38 -94 48 -94 5 0 40 -28 79 -62 38 -35 96 -83 127 -108 32 -25 79 -64
105 -87 26 -23 68 -51 93 -62 25 -10 69 -30 99 -43 117 -52 384 -108 519 -107
122 0 407 24 422 36 7 5 32 17 54 26 47 18 182 101 233 144 18 15 46 35 61 43
15 8 55 45 89 83 l61 67 0 29 0 28 -17 15 c-27 23 -86 54 -114 61 -15 4 -48
22 -75 40 -27 19 -71 44 -99 56 -27 12 -67 35 -87 51 -20 17 -42 30 -48 30 -6
0 -30 20 -54 45 l-44 45 -40 0 -41 0 -37 -45 c-20 -25 -42 -45 -49 -45 -7 0
-34 -10 -61 -22 l-49 -22 -105 0 -105 0 -63 22 c-34 12 -73 22 -85 22 -26 0
-61 33 -71 67 -4 12 -28 40 -53 63 l-46 40 -31 -1 c-17 0 -56 -11 -86 -25z"/>
</g>
</svg>
