<?xml version="1.0" standalone="no"?>
<!DOCTYPE svg PUBLIC "-//W3C//DTD SVG 20010904//EN"
 "http://www.w3.org/TR/2001/REC-SVG-20010904/DTD/svg10.dtd">
<svg version="1.0" xmlns="http://www.w3.org/2000/svg"
 width="1800.000000pt" height="1014.000000pt" viewBox="0 0 1800.000000 1014.000000"
 preserveAspectRatio="xMidYMid meet">
<g transform="translate(0.000000,1014.000000) scale(0.100000,-0.100000)"
fill="#000000" stroke="none">
<path d="M8805 8999 c-44 -11 -107 -26 -140 -33 -33 -8 -102 -34 -154 -60 -52
-25 -99 -46 -105 -46 -6 0 -28 -18 -50 -40 -21 -22 -44 -40 -51 -40 -6 0 -25
-11 -41 -25 -16 -14 -56 -44 -89 -66 -33 -22 -73 -54 -90 -70 -16 -16 -64 -63
-105 -103 -80 -78 -151 -171 -175 -230 -9 -20 -31 -57 -50 -82 l-35 -46 0 -38
0 -39 28 -19 c15 -11 50 -29 77 -41 28 -12 61 -32 75 -45 14 -13 39 -28 57
-34 18 -6 58 -29 91 -50 32 -22 74 -47 93 -56 19 -9 52 -30 74 -46 l40 -30 40
3 40 2 26 52 c35 69 122 176 168 206 95 62 162 97 204 107 l46 10 138 -6 138
-6 31 -15 c40 -18 217 -190 238 -231 l17 -32 31 0 31 0 81 44 c45 24 97 47
116 51 19 4 40 11 45 16 22 17 132 67 163 74 18 4 71 24 117 46 l84 38 11 21
11 21 -20 32 c-12 18 -30 52 -42 76 -12 24 -36 65 -54 90 -18 25 -40 62 -50
81 -10 19 -34 52 -54 72 -49 50 -117 128 -136 156 -9 12 -22 22 -29 22 -7 0
-28 16 -47 35 -19 19 -47 40 -64 47 -16 6 -56 30 -88 51 -32 22 -76 49 -97 61
-21 12 -55 32 -76 46 -22 14 -83 40 -137 57 l-98 33 -77 -1 c-42 0 -113 -9
-157 -20z"/>
<path d="M8696 7928 c-11 -6 -62 -54 -113 -107 l-95 -96 -25 -50 c-14 -27 -39
-69 -54 -92 -31 -44 -37 -84 -16 -101 l12 -10 22 9 c12 4 27 17 33 28 6 12 25
28 43 37 18 9 48 31 67 49 36 34 105 75 127 75 6 0 28 9 47 21 l36 21 2 81 c2
113 1 129 -14 139 -18 11 -49 9 -72 -4z"/>
<path d="M8978 7883 c-24 -28 -48 -100 -48 -143 l0 -40 18 -16 c9 -8 48 -37
86 -64 l70 -49 53 -68 c29 -38 65 -81 79 -96 l26 -28 27 3 26 3 3 24 c16 110
-125 380 -237 455 -61 40 -81 44 -103 19z"/>
<path d="M9963 7855 c-56 -19 -127 -48 -158 -65 -30 -17 -84 -40 -118 -50 -79
-25 -210 -84 -226 -103 l-11 -14 25 -54 25 -54 0 -40 c1 -22 9 -74 18 -115
l18 -75 43 -3 44 -3 96 34 c116 42 178 57 231 57 23 0 56 6 74 14 19 8 68 17
109 21 l76 7 16 18 16 18 -11 44 c-6 23 -24 75 -39 114 -16 39 -32 100 -36
135 -3 35 -11 78 -16 95 l-10 31 -25 12 c-32 14 -22 16 -141 -24z"/>
<path d="M7600 7818 c-30 -47 -71 -141 -79 -181 -5 -23 -22 -72 -40 -109 -17
-36 -31 -78 -31 -92 l0 -26 24 -15 c13 -9 41 -19 62 -22 22 -4 78 -26 125 -50
47 -23 93 -43 102 -43 8 0 42 -13 75 -30 34 -16 63 -30 66 -30 3 0 25 -13 49
-30 25 -16 57 -30 71 -30 l26 0 14 23 c7 12 19 50 24 83 l11 62 38 73 c21 41
41 85 45 98 l7 24 -9 18 c-6 9 -25 22 -44 29 -19 6 -39 17 -45 24 -6 7 -46 28
-89 47 -42 18 -90 43 -107 55 -16 12 -52 32 -80 44 -27 12 -73 40 -101 61
l-51 39 -24 0 -24 0 -15 -22z"/>
<path d="M8630 7372 c-30 -15 -69 -37 -85 -48 -44 -32 -120 -65 -188 -84 l-60
-16 -58 -115 -59 -114 0 -70 0 -71 -14 -19 -13 -20 8 -22 8 -23 20 0 c10 0 46
14 79 30 34 17 64 30 67 30 4 0 21 11 38 24 18 13 59 36 92 51 33 15 74 38 90
50 17 12 59 33 93 45 l64 23 8 21 c11 27 32 334 25 346 -11 17 -59 10 -115
-18z"/>
<path d="M8944 7372 l-11 -7 -6 -90 c-4 -49 -10 -123 -13 -162 l-7 -72 13 -31
13 -30 66 -52 c93 -74 309 -268 315 -284 3 -7 24 -23 46 -34 l42 -21 14 12 14
12 -5 46 c-3 25 -10 111 -15 189 l-8 144 -24 25 c-13 14 -59 56 -103 93 -44
37 -127 113 -184 169 -99 96 -122 110 -147 93z"/>
<path d="M10110 7130 c-30 -16 -65 -29 -77 -30 -32 0 -152 -28 -196 -45 -20
-8 -57 -15 -80 -15 -24 0 -67 -7 -95 -15 l-52 -16 -10 -19 -11 -20 11 -38 c5
-20 13 -90 17 -155 l6 -118 25 -20 25 -19 126 1 c147 0 243 10 324 33 32 9 87
16 122 16 l65 0 21 21 22 22 -6 116 c-3 64 -13 148 -22 187 l-17 71 -30 37
-29 36 -42 -1 -42 -1 -55 -28z"/>
<path d="M7332 7102 c-8 -5 -20 -40 -28 -78 -7 -38 -23 -109 -34 -158 -11 -50
-20 -104 -20 -122 l0 -32 31 -26 c34 -29 36 -29 164 -46 50 -7 113 -16 140
-21 28 -5 87 -16 133 -23 l83 -13 28 -27 29 -27 38 3 39 3 14 40 c7 22 17 90
21 150 5 61 11 122 15 137 l7 26 -19 17 c-26 24 -125 85 -138 85 -7 0 -54 14
-106 31 -52 16 -116 32 -143 34 l-48 4 -22 19 -21 20 -75 6 -75 7 -13 -9z"/>
<path d="M8570 6716 c-41 -22 -86 -49 -100 -58 -14 -9 -54 -29 -90 -44 -36
-15 -78 -37 -94 -48 -17 -12 -66 -33 -110 -47 l-81 -25 -3 -62 -3 -62 15 -6
c8 -3 122 -2 253 3 l238 8 30 23 c16 12 35 32 43 43 l14 20 9 97 c5 53 14 112
20 131 l12 35 -23 18 c-30 24 -43 22 -130 -26z"/>
<path d="M8872 6693 c-5 -10 -12 -68 -16 -130 -3 -62 -9 -125 -11 -140 -3 -15
-1 -35 4 -43 l10 -15 75 3 75 3 11 -21 c6 -11 10 -44 9 -73 -1 -29 1 -62 5
-75 l7 -22 38 -19 c20 -11 44 -27 51 -37 8 -9 49 -42 90 -74 41 -32 81 -65 89
-74 17 -20 55 -21 74 -2 l14 14 8 109 c4 59 7 124 7 143 l-1 35 -33 28 c-71
59 -134 114 -193 167 -271 241 -295 258 -313 223z"/>
<path d="M7241 6421 l-19 -19 -6 -54 c-3 -29 -11 -105 -17 -169 l-11 -116 16
-31 c9 -17 26 -38 38 -47 l23 -15 251 0 c137 1 273 -2 301 -5 l50 -7 22 11 21
12 0 164 0 164 -19 10 c-10 6 -63 17 -118 25 -55 8 -123 24 -152 35 l-52 21
-67 0 -67 0 -53 20 c-29 11 -68 20 -87 20 l-35 0 -19 -19z"/>
<path d="M10241 6419 c-36 -7 -453 -29 -558 -29 -17 0 -39 -7 -47 -16 l-16
-15 0 -97 0 -97 -15 -55 c-8 -30 -15 -74 -15 -96 l0 -42 16 -6 c9 -3 37 -6 62
-6 26 0 114 -14 195 -30 l148 -29 107 -6 c59 -3 123 -8 143 -10 l36 -5 16 13
17 12 5 254 6 254 -13 8 c-15 10 -28 10 -87 -2z"/>
<path d="M8299 6099 l-10 -6 0 -1088 -1 -1087 9 -7 c4 -3 310 -4 678 -1 l670
5 3 177 2 177 -22 14 -23 13 -420 -7 -420 -8 -9 9 -8 8 1 896 2 896 -15 6
c-20 8 -425 11 -437 3z"/>
<path d="M9027 5923 c-4 -3 -7 -89 -7 -190 l0 -184 30 -27 c16 -15 50 -46 75
-69 58 -56 95 -54 108 7 5 24 15 55 39 123 6 17 13 55 15 83 l5 51 -34 28
c-18 15 -55 48 -81 73 -106 99 -136 120 -150 105z"/>
<path d="M7211 5744 l-31 -26 0 -31 c0 -18 9 -67 19 -110 11 -42 28 -123 38
-179 l18 -101 23 -10 23 -11 92 17 c200 37 276 47 375 47 l102 0 38 34 37 35
-2 151 -2 150 -10 19 -10 18 -188 7 -188 7 -95 -10 -95 -9 -34 14 c-49 20 -75
17 -110 -12z"/>
<path d="M9512 5758 c-7 -7 -12 -19 -12 -27 -1 -21 -30 -101 -64 -174 -14 -32
-31 -79 -37 -105 l-10 -47 26 -22 c14 -13 33 -23 41 -23 8 0 32 -9 52 -19 21
-11 60 -22 87 -26 28 -4 97 -27 154 -52 57 -25 120 -47 140 -51 20 -3 68 -23
106 -44 39 -21 78 -38 87 -38 l17 0 14 28 c15 29 32 93 42 156 4 22 24 83 46
137 21 54 42 117 45 141 l6 44 -13 11 -14 11 -175 17 c-164 15 -221 25 -360
59 -159 40 -162 40 -178 24z"/>
<path d="M9027 5273 c-6 -10 -11 -103 -9 -175 l2 -58 14 0 c19 0 84 98 92 138
l6 32 -35 35 c-33 33 -60 44 -70 28z"/>
<path d="M9268 5123 c-19 -32 -43 -80 -53 -108 -10 -27 -33 -72 -51 -100 -18
-27 -36 -62 -39 -76 l-7 -27 22 -20 c12 -11 48 -31 79 -43 31 -12 72 -34 91
-48 19 -14 64 -41 99 -59 36 -18 78 -44 94 -58 l29 -24 160 2 161 3 8 15 c42
79 119 251 119 267 0 29 -28 49 -100 74 -36 12 -99 40 -142 61 -42 21 -82 38
-90 38 -7 0 -38 14 -68 30 -30 16 -75 39 -100 51 -25 12 -71 34 -102 50 -74
37 -69 39 -110 -28z"/>
<path d="M7880 5100 c-36 -11 -96 -29 -135 -40 -38 -11 -101 -26 -140 -34 -38
-7 -83 -19 -100 -27 -16 -7 -63 -24 -104 -38 -41 -14 -79 -34 -85 -43 l-10
-17 13 -48 c7 -26 17 -91 21 -143 11 -136 41 -256 73 -296 l18 -24 33 0 33 0
24 21 c13 11 50 34 82 50 32 16 73 39 90 51 30 21 84 51 249 133 l66 34 5 18
c2 10 4 108 3 218 l-1 200 -35 2 c-19 1 -64 -7 -100 -17z"/>
<path d="M9715 3563 c-11 -2 -37 -11 -58 -19 l-37 -14 -106 0 -105 0 -87 -21
-87 -22 -13 -16 -14 -16 5 -60 c17 -202 36 -315 56 -337 3 -4 92 0 196 7 105
8 252 15 327 15 l137 0 15 16 c23 22 20 40 -18 108 l-33 61 -11 62 c-6 34 -24
90 -40 125 -16 35 -34 75 -40 91 l-12 27 -27 -1 c-16 -1 -37 -3 -48 -6z"/>
<path d="M8235 3345 c-14 -6 -273 -45 -360 -55 -38 -5 -90 -13 -115 -19 -25
-6 -71 -11 -102 -11 l-57 0 -16 -16 -16 -17 6 -76 c4 -42 13 -104 21 -139 8
-35 14 -96 14 -136 l0 -74 15 -12 15 -12 53 5 c28 3 77 13 107 22 117 34 239
57 346 64 l112 7 27 18 27 18 -6 82 c-3 44 -9 137 -12 206 l-6 125 -16 13
c-16 12 -20 13 -37 7z"/>
<path d="M8943 3177 l-76 -76 7 -68 c3 -37 12 -90 19 -118 l14 -50 44 1 44 0
60 58 60 58 0 109 0 108 -20 20 c-11 11 -33 23 -48 27 l-28 6 -76 -75z"/>
<path d="M8471 3156 l-12 -15 7 -120 7 -121 14 -12 c25 -21 127 -58 159 -58
55 0 69 42 55 165 l-9 79 -22 18 c-12 10 -31 18 -43 18 -11 0 -42 14 -69 30
-54 34 -70 36 -87 16z"/>
<path d="M9795 2889 c-55 -4 -153 -15 -218 -24 -65 -8 -145 -15 -177 -15 l-57
0 -28 -22 -28 -22 6 -90 6 -90 19 -25 19 -26 339 0 339 0 13 9 c14 10 16 68 2
110 -5 17 -15 57 -21 89 l-11 58 -21 24 c-28 30 -59 34 -182 24z"/>
<path d="M8270 2711 c-19 -10 -80 -26 -135 -36 -55 -9 -140 -28 -190 -41 -121
-32 -188 -44 -249 -44 l-52 0 -12 -12 c-15 -15 -15 -77 -1 -132 25 -96 33
-116 55 -137 l23 -22 87 7 87 7 134 45 133 45 77 9 c144 16 143 15 143 176 l0
114 -20 20 c-25 25 -36 25 -80 1z"/>
<path d="M9014 2680 c-27 -28 -56 -63 -66 -78 l-18 -27 0 -45 0 -46 16 -22 15
-22 22 1 c12 0 51 14 86 32 l63 32 25 47 24 46 -7 38 -7 39 -28 27 -27 28 -26
0 -25 0 -47 -50z"/>
<path d="M8556 2624 l-16 -15 0 -58 0 -58 23 -20 c28 -27 93 -59 133 -68 l32
-6 17 17 18 18 -7 65 c-7 76 -11 81 -93 115 -73 30 -86 32 -107 10z"/>
<path d="M9335 2343 l-15 -31 0 -65 0 -66 14 -13 c14 -15 114 -40 231 -58 39
-6 117 -26 175 -45 94 -31 187 -56 262 -72 l26 -5 12 22 12 23 -3 153 -4 153
-16 17 -17 16 -331 1 -331 2 -15 -32z"/>
<path d="M9115 2288 c-11 -6 -38 -28 -59 -49 l-40 -38 -4 -60 c-2 -33 -1 -81
3 -106 l6 -46 16 -6 c36 -14 87 45 143 165 24 52 25 74 5 111 -20 39 -39 47
-70 29z"/>
<path d="M8604 2235 c-7 -17 -6 -18 29 -148 27 -95 44 -122 95 -144 66 -28 88
0 77 97 l-7 59 -29 45 -28 45 -48 31 c-53 33 -81 38 -89 15z"/>
<path d="M8294 2226 c-17 -8 -51 -17 -75 -21 -45 -7 -85 -19 -179 -55 -30 -11
-101 -30 -158 -41 -57 -11 -114 -25 -128 -31 l-24 -11 -11 -37 -11 -36 32 -80
c17 -43 35 -83 41 -88 5 -6 9 -18 9 -27 0 -24 54 -79 78 -79 26 0 87 34 127
71 17 15 44 34 60 42 17 8 46 29 65 46 19 17 55 41 80 53 25 12 59 32 75 44
17 12 56 29 87 38 31 9 64 23 72 32 l16 15 0 42 c0 122 -57 166 -156 123z"/>
<path d="M9259 1967 l-34 -23 -25 -48 c-29 -55 -54 -76 -87 -76 -12 0 -45 -9
-73 -20 l-51 -20 -107 -3 -107 -2 -65 24 -65 24 -45 43 -46 44 -35 0 -36 0
-16 -18 c-10 -10 -17 -24 -17 -31 0 -7 -19 -21 -42 -32 -48 -22 -64 -31 -121
-71 -22 -16 -46 -28 -54 -28 -8 0 -29 -11 -46 -24 -35 -25 -89 -54 -152 -80
-22 -10 -52 -28 -67 -41 l-28 -24 0 -21 0 -22 57 -65 c32 -36 85 -84 118 -106
33 -22 62 -44 63 -49 2 -5 25 -19 51 -33 26 -13 53 -30 60 -38 6 -8 42 -28 79
-43 37 -15 73 -32 81 -38 17 -13 270 -35 406 -35 105 -1 236 18 320 44 28 9
74 21 104 26 30 6 100 31 155 56 l101 45 45 44 c25 24 51 44 57 44 6 0 22 13
36 29 14 17 38 38 53 48 29 18 69 53 147 129 44 44 83 110 93 161 l6 31 -20
20 c-12 12 -38 24 -59 27 -80 12 -170 36 -243 64 -41 17 -102 37 -135 46 -33
9 -84 28 -113 41 -66 30 -100 30 -143 1z"/>
</g>
</svg>
